<?xml version="1.0" encoding="utf-8"?>
<!-- Generator: Adobe Illustrator 28.0.0, SVG Export Plug-In . SVG Version: 6.00 Build 0)  -->
<svg version="1.1" id="图层_1" xmlns="http://www.w3.org/2000/svg" xmlns:xlink="http://www.w3.org/1999/xlink" x="0px" y="0px"
	 viewBox="0 0 1126.6 150.5" style="enable-background:new 0 0 1126.6 150.5;" xml:space="preserve">
<style type="text/css">
	.st0{fill:#040000;}
	.st1{font-family:'HelveticaNeue';}
	.st2{font-size:51.5101px;}
	.st3{fill:url(#SVGID_1_);}
	.st4{fill:url(#SVGID_00000084499106575239453780000002366345645432027047_);}
	.st5{fill:url(#SVGID_00000039828341355087092500000002003974440139766454_);}
	.st6{fill:none;stroke:#D7372D;stroke-width:71.3271;stroke-linecap:round;stroke-linejoin:round;stroke-miterlimit:10;}
	.st7{fill:none;stroke:#9C1F24;stroke-width:71.3271;stroke-linecap:round;stroke-linejoin:round;stroke-miterlimit:10;}
	.st8{fill:url(#SVGID_00000156577689292339005990000018134510547133139873_);}
	.st9{fill:url(#SVGID_00000146458029522707650590000011954233715606300074_);}
	.st10{fill:url(#SVGID_00000023991596946377660880000007507045239352822169_);}
	.st11{fill:url(#SVGID_00000016786844437033055600000001958889032474759297_);}
	.st12{fill:url(#SVGID_00000013899361289155468710000010905608319851424667_);}
	.st13{fill:url(#SVGID_00000182499743462549700790000004721156978349869196_);}
	.st14{fill:url(#SVGID_00000135689742692100888610000001954950103437360311_);}
	.st15{fill:url(#SVGID_00000175312568934438511690000016314076874945393322_);}
	.st16{fill:url(#SVGID_00000096050509369024883990000016493004929592830396_);}
</style>
<text transform="matrix(1 0 0 1 1085.4238 53.5157)" class="st0 st1 st2">®</text>
<g>
	<g>
		<linearGradient id="SVGID_1_" gradientUnits="userSpaceOnUse" x1="97.5495" y1="132.7551" x2="130.14" y2="132.7551">
			<stop  offset="0" style="stop-color:#E84E3E"/>
			<stop  offset="0.5656" style="stop-color:#DC3D32"/>
			<stop  offset="1" style="stop-color:#D7372D"/>
		</linearGradient>
		<path class="st3" d="M105.5,150.5c-1.8,0-3.7-0.6-5.2-1.9c-3.4-2.9-3.8-7.9-0.9-11.3l16.6-19.5c2.9-3.4,7.9-3.8,11.3-0.9
			c3.4,2.9,3.8,7.9,0.9,11.3l-16.6,19.5C110,149.5,107.8,150.5,105.5,150.5z"/>

			<linearGradient id="SVGID_00000037679213750078405960000015637928413538697889_" gradientUnits="userSpaceOnUse" x1="61.852" y1="132.7551" x2="94.4425" y2="132.7551">
			<stop  offset="0" style="stop-color:#E84E3E"/>
			<stop  offset="0.5656" style="stop-color:#DC3D32"/>
			<stop  offset="1" style="stop-color:#D7372D"/>
		</linearGradient>
		<path style="fill:url(#SVGID_00000037679213750078405960000015637928413538697889_);" d="M69.8,150.5c-1.8,0-3.7-0.6-5.2-1.9
			c-3.4-2.9-3.8-7.9-0.9-11.3l16.6-19.5c2.9-3.4,7.9-3.8,11.3-0.9c3.4,2.9,3.8,7.9,0.9,11.3l-16.6,19.5
			C74.3,149.5,72.1,150.5,69.8,150.5z"/>

			<linearGradient id="SVGID_00000064332586404911813250000009843165163150821301_" gradientUnits="userSpaceOnUse" x1="26.1543" y1="132.7551" x2="58.7448" y2="132.7551">
			<stop  offset="0" style="stop-color:#E84E3E"/>
			<stop  offset="0.5656" style="stop-color:#DC3D32"/>
			<stop  offset="1" style="stop-color:#D7372D"/>
		</linearGradient>
		<path style="fill:url(#SVGID_00000064332586404911813250000009843165163150821301_);" d="M34.1,150.5c-1.8,0-3.7-0.6-5.2-1.9
			c-3.4-2.9-3.8-7.9-0.9-11.3l16.6-19.5c2.9-3.4,7.9-3.8,11.3-0.9c3.4,2.9,3.8,7.9,0.9,11.3l-16.6,19.5
			C38.6,149.5,36.4,150.5,34.1,150.5z"/>
		<path class="st6" d="M64,113"/>
		<path class="st7" d="M32.8,130.2"/>
		<g>

				<linearGradient id="SVGID_00000064346996395593138330000012003284608989063818_" gradientUnits="userSpaceOnUse" x1="113.5057" y1="138.3922" x2="113.5057" y2="128.0815">
				<stop  offset="0" style="stop-color:#D7372D;stop-opacity:0"/>
				<stop  offset="0.602" style="stop-color:#221714;stop-opacity:0.4"/>
			</linearGradient>
			<path style="fill:url(#SVGID_00000064346996395593138330000012003284608989063818_);" d="M119.5,138.4l8.7-10.2
				c0,0,0.1-0.1,0.1-0.1c-1.5,1.8-3.7,2.9-6.2,2.9h-17.3l-5.4,6.3c-0.3,0.3-0.6,0.7-0.8,1.1H119.5z"/>

				<linearGradient id="SVGID_00000071552385708547788270000014399875051583002040_" gradientUnits="userSpaceOnUse" x1="128.8012" y1="128.0341" x2="128.8012" y2="126.7216">
				<stop  offset="0" style="stop-color:#D7372D;stop-opacity:0"/>
				<stop  offset="0.602" style="stop-color:#221714;stop-opacity:0.4"/>
			</linearGradient>
			<path style="fill:url(#SVGID_00000071552385708547788270000014399875051583002040_);" d="M129.2,126.7c-0.2,0.5-0.5,0.9-0.9,1.3
				C128.7,127.6,129,127.2,129.2,126.7z"/>
		</g>

			<linearGradient id="SVGID_00000086666032825976518490000005163549233480287637_" gradientUnits="userSpaceOnUse" x1="76.9048" y1="137.4141" x2="76.9048" y2="131.0122">
			<stop  offset="0" style="stop-color:#D7372D;stop-opacity:0"/>
			<stop  offset="0.8141" style="stop-color:#221714;stop-opacity:0.4"/>
		</linearGradient>
		<path style="fill:url(#SVGID_00000086666032825976518490000005163549233480287637_);" d="M84.7,137.4l5.5-6.4h-21l-5.4,6.3
			c0,0-0.1,0.1-0.1,0.1H84.7z"/>

			<linearGradient id="SVGID_00000087370292652179594700000010600423149491063221_" gradientUnits="userSpaceOnUse" x1="41.6167" y1="138.0882" x2="41.6167" y2="130.5169">
			<stop  offset="0" style="stop-color:#D7372D;stop-opacity:0"/>
			<stop  offset="0.8372" style="stop-color:#221714;stop-opacity:0.4"/>
		</linearGradient>
		<path style="fill:url(#SVGID_00000087370292652179594700000010600423149491063221_);" d="M40.2,138.1h8.2l6-7.1H40.2
			c-2.1,0-4.3-0.2-6.3-0.5l-5.1,5.9C32.4,137.5,36.2,138.1,40.2,138.1z"/>

			<linearGradient id="SVGID_00000067234431799467360640000005038160502076837009_" gradientUnits="userSpaceOnUse" x1="46.5311" y1="97.1903" x2="33.8222" y2="84.4814">
			<stop  offset="0" style="stop-color:#C83229"/>
			<stop  offset="8.114195e-02" style="stop-color:#CC352B"/>
			<stop  offset="0.6339" style="stop-color:#E04437"/>
			<stop  offset="1" style="stop-color:#E84A3B"/>
		</linearGradient>
		<circle style="fill:url(#SVGID_00000067234431799467360640000005038160502076837009_);" cx="40.2" cy="90.8" r="9"/>

			<linearGradient id="SVGID_00000160184509864151717520000013046993816135351725_" gradientUnits="userSpaceOnUse" x1="0" y1="74.1525" x2="183.1357" y2="74.1525">
			<stop  offset="0" style="stop-color:#E84E3E"/>
			<stop  offset="0.4983" style="stop-color:#C83229"/>
			<stop  offset="1" style="stop-color:#E84A3B"/>
		</linearGradient>
		<path style="fill:url(#SVGID_00000160184509864151717520000013046993816135351725_);" d="M143.2,51.1
			C143.2,51.1,143.1,51.1,143.2,51.1c-0.4-13.5-5.8-26.1-15.4-35.7C117.8,5.5,104.5,0,90.4,0S63.1,5.5,53.1,15.4
			c-9.5,9.5-14.9,21.9-15.4,35.3c0,0,0,0,0,0C16.6,52-0.1,69.6,0,91c0.1,22.2,18.4,40,40.5,40h72.2c6.8,0,8,5.5,8,5.9c0,0,0,0,0,0
			l7.5-8.7l0,0c1.2-1.4,1.9-3.3,1.9-5.4c-0.1-4.4-3.8-7.8-8.1-7.8H40.5C27.1,115,16,104.3,16,91c-0.1-13.4,10.8-24.3,24.2-24.3
			c1.5,0,2.9,0.1,4.3,0.4c2.2,0.4,4.3-0.1,6-1.3c2.5-1.6,4-4.6,3.5-7.8c-0.2-1.7-0.4-3.4-0.4-5.2C53.7,32.5,70.2,16,90.4,16
			s36.8,16.5,36.8,36.8c0,0.5,0,1.1,0,1.6c0,0,0,0,0,0c-14.3,6.1-24.3,20.3-24.4,36.8c0,4.4,3.5,8.1,8,8.2c4.4,0,8-3.6,8-8
			c0-13.3,10.9-24.2,24.2-24.2s24.2,10.9,24.2,24.2c0,6-2.2,11.8-6.3,16.3c0,0-0.1,0.1-0.1,0.1l-23.8,27.3
			c-2.9,3.3-2.5,8.4,0.8,11.3c1.5,1.3,3.4,2,5.2,2c2.2,0,4.4-0.9,6-2.7l23.7-27.3c6.7-7.4,10.4-17,10.4-27
			C183.1,69.2,165.2,51.2,143.2,51.1z"/>

			<linearGradient id="SVGID_00000029749334481927106680000009734383808469770140_" gradientUnits="userSpaceOnUse" x1="121.7674" y1="71.891" x2="59.2301" y2="9.3537">
			<stop  offset="0" style="stop-color:#C83229"/>
			<stop  offset="1" style="stop-color:#E84A3B"/>
		</linearGradient>
		<path style="fill:url(#SVGID_00000029749334481927106680000009734383808469770140_);" d="M90.4,7.3c14.4,0,27.8,5.6,38,15.7
			c7.6,7.6,12.7,17.1,14.7,27.5c-0.5-13.3-6-25.7-15.4-35.1C117.8,5.5,104.5,0,90.4,0S63.1,5.5,53.1,15.4
			c-9.4,9.4-14.8,21.7-15.4,34.8c2.1-10.2,7.1-19.7,14.7-27.2C62.6,12.9,76.1,7.3,90.4,7.3z"/>

			<linearGradient id="SVGID_00000152987183698457594470000008311817588497760690_" gradientUnits="userSpaceOnUse" x1="15.3446" y1="110.6247" x2="130.14" y2="110.6247">
			<stop  offset="0" style="stop-color:#C83229"/>
			<stop  offset="1" style="stop-color:#E84A3B"/>
		</linearGradient>
		<path style="fill:url(#SVGID_00000152987183698457594470000008311817588497760690_);" d="M128.2,128.2L128.2,128.2
			c1.2-1.4,1.9-3.2,1.9-5.2c0-4.4-3.6-8-8-8h-82c-13.3,0-24.2-10.9-24.2-24.2c0-2.3,0.3-4.5,0.9-6.6c0,0-15.5,46.7,52.2,46.7l0,0
			h43.6c7,0,8,5.9,8,5.9L128.2,128.2z"/>

			<linearGradient id="SVGID_00000011027151922073559920000006335301762670012600_" gradientUnits="userSpaceOnUse" x1="134.9725" y1="112.6774" x2="171.4226" y2="112.6774">
			<stop  offset="0" style="stop-color:#E84A3B"/>
			<stop  offset="1" style="stop-color:#C83229"/>
		</linearGradient>
		<path style="fill:url(#SVGID_00000011027151922073559920000006335301762670012600_);" d="M162.5,77c2.9,4,4.7,8.9,4.7,14.3
			c0,6-2.2,11.8-6.3,16.3c0,0-0.1,0.1-0.1,0.1l-23.8,27.3c-2.9,3.3-2.5,8.4,0.8,11.3c1.5,1.3,3.4,2,5.2,2c2.2,0,4.4-0.9,6-2.7
			l6.2-7.2l0,0C186.8,101.9,162.5,77,162.5,77L162.5,77z"/>
	</g>
</g>
<g>
	<path class="st0" d="M277.7,34.9v14.7h-41.9v17h38.5v13.6h-38.5v19.5h42.8v14.7h-60.3V34.9H277.7z"/>
	<path class="st0" d="M303.7,94.7c1,1.9,2.2,3.4,3.8,4.5c1.6,1.2,3.5,2,5.6,2.6c2.1,0.6,4.4,0.8,6.7,0.8c1.6,0,3.2-0.1,5-0.4
		c1.8-0.3,3.4-0.8,5-1.5c1.6-0.7,2.9-1.8,3.9-3.1c1-1.3,1.6-2.9,1.6-4.9c0-2.1-0.7-3.9-2.1-5.2c-1.4-1.3-3.2-2.4-5.4-3.3
		c-2.2-0.9-4.7-1.7-7.6-2.3c-2.8-0.7-5.7-1.4-8.6-2.2c-3-0.7-5.9-1.6-8.7-2.7c-2.8-1.1-5.3-2.5-7.6-4.2c-2.2-1.7-4-3.8-5.4-6.4
		c-1.4-2.6-2.1-5.7-2.1-9.3c0-4.1,0.9-7.6,2.6-10.6c1.7-3,4-5.5,6.8-7.5c2.8-2,6-3.5,9.6-4.4c3.6-1,7.1-1.4,10.7-1.4
		c4.2,0,8.1,0.5,12,1.4c3.8,0.9,7.2,2.4,10.2,4.5c3,2.1,5.3,4.7,7.1,8c1.7,3.2,2.6,7.1,2.6,11.7h-16.9c-0.1-2.4-0.7-4.3-1.5-5.9
		c-0.9-1.6-2-2.8-3.4-3.7c-1.4-0.9-3-1.5-4.8-1.9c-1.8-0.4-3.8-0.6-6-0.6c-1.4,0-2.8,0.1-4.2,0.4c-1.4,0.3-2.7,0.8-3.8,1.6
		c-1.2,0.7-2.1,1.7-2.8,2.8c-0.7,1.1-1.1,2.5-1.1,4.2c0,1.6,0.3,2.8,0.9,3.8c0.6,1,1.8,1.9,3.5,2.7c1.7,0.8,4.2,1.6,7.2,2.4
		c3.1,0.8,7.1,1.9,12.1,3.1c1.5,0.3,3.5,0.8,6.2,1.6c2.6,0.8,5.2,2,7.8,3.7c2.6,1.7,4.8,4,6.7,6.8c1.9,2.9,2.8,6.5,2.8,11
		c0,3.6-0.7,7-2.1,10.1c-1.4,3.1-3.5,5.8-6.3,8.1c-2.8,2.3-6.2,4-10.3,5.3c-4.1,1.3-8.9,1.9-14.3,1.9c-4.4,0-8.6-0.5-12.7-1.6
		c-4.1-1.1-7.7-2.8-10.9-5.1c-3.2-2.3-5.7-5.2-7.5-8.8s-2.7-7.8-2.7-12.7h16.9C302.3,90.6,302.7,92.9,303.7,94.7z"/>
	<path class="st0" d="M398.4,34.9c5,0,9.2,0.7,12.7,2.2c3.5,1.4,6.3,3.4,8.5,5.7c2.2,2.4,3.8,5.1,4.8,8.1c1,3,1.5,6.2,1.5,9.5
		c0,3.2-0.5,6.3-1.5,9.4c-1,3.1-2.6,5.8-4.8,8.2c-2.2,2.4-5,4.3-8.5,5.7c-3.5,1.4-7.7,2.2-12.7,2.2H380v28.5h-17.5V34.9H398.4z
		 M393.6,72.3c2,0,3.9-0.1,5.8-0.4c1.9-0.3,3.5-0.9,4.9-1.7c1.4-0.9,2.5-2.1,3.4-3.6c0.9-1.6,1.3-3.6,1.3-6.1c0-2.5-0.4-4.6-1.3-6.1
		c-0.9-1.6-2-2.8-3.4-3.6c-1.4-0.9-3-1.4-4.9-1.7c-1.9-0.3-3.8-0.4-5.8-0.4H380v23.8H393.6z"/>
	<path class="st0" d="M504.3,34.9c3.3,0,6.4,0.4,9.3,1.2c2.9,0.8,5.5,2.1,7.7,3.7c2.2,1.7,3.9,3.8,5.2,6.5c1.3,2.6,1.9,5.7,1.9,9.3
		c0,5-1.3,9.4-3.9,13.1c-2.6,3.7-6.5,6.1-11.6,7.1v0.2c2.6,0.4,4.7,1.1,6.5,2.1s3.1,2.3,4.2,3.8c1.1,1.6,1.9,3.4,2.3,5.4
		c0.5,2,0.8,4.2,0.9,6.6c0.1,1.3,0.1,3,0.2,4.9c0.1,1.9,0.2,3.9,0.4,5.8c0.2,2,0.6,3.8,1.1,5.6c0.5,1.7,1.1,3.1,1.9,4.1h-8.3
		c-0.4-0.7-0.8-1.6-1.1-2.7c-0.3-1.1-0.4-2.2-0.6-3.3c-0.1-1.1-0.2-2.3-0.3-3.4c-0.1-1.1-0.1-2.1-0.2-2.9c-0.1-2.8-0.4-5.6-0.7-8.4
		c-0.3-2.8-1-5.3-2.1-7.5c-1.1-2.2-2.6-3.9-4.7-5.3c-2-1.3-4.8-1.9-8.4-1.8h-28.7v35.3H468V34.9H504.3z M503.8,72.6
		c2.3,0,4.5-0.4,6.6-1.1c2.1-0.7,3.9-1.7,5.4-3.1c1.6-1.3,2.8-2.9,3.7-4.8c0.9-1.9,1.4-4.1,1.4-6.5c0-4.9-1.4-8.7-4.2-11.6
		c-2.8-2.8-7.1-4.2-12.9-4.2h-28.3v31.3H503.8z"/>
	<path class="st0" d="M573.9,34.9l31.1,79.4h-8.1l-9.7-24.7h-36.1l-9.6,24.7h-8l31.9-79.4H573.9z M584.7,83.2l-15.4-40.7l-15.9,40.7
		H584.7z"/>
	<path class="st0" d="M620.4,34.9v79.4h-7.6V34.9H620.4z"/>
	<path class="st0" d="M645.3,34.9l46.3,67.2h0.2V34.9h7.6v79.4h-8.5l-46.3-67.2h-0.2v67.2h-7.6V34.9H645.3z"/>
	<path class="st0" d="M726.1,34.9l26.4,69.6l27.4-69.6H791v79.4h-7.6V45.7h-0.2l-27.1,68.6h-7.1l-26.1-68.6h-0.2v68.6H715V34.9
		H726.1z"/>
	<path class="st0" d="M838.2,34.9l31.1,79.4h-8.1l-9.7-24.7h-36.1l-9.6,24.7h-8l31.9-79.4H838.2z M849,83.2l-15.3-40.7l-15.9,40.7
		H849z"/>
	<path class="st0" d="M884.2,34.9v42.7l46.2-42.7h10.2l-35.5,32.8l37.2,46.6h-9.8l-33-41.4l-15.2,14.1v27.3h-7.6V34.9H884.2z"/>
	<path class="st0" d="M1003.5,34.9v6.5h-47.3V70h44.3v6.5h-44.3v31.4h47.8v6.5h-55.4V34.9H1003.5z"/>
	<path class="st0" d="M1051,34.9c3.3,0,6.4,0.4,9.3,1.2c2.9,0.8,5.5,2.1,7.7,3.7c2.2,1.7,3.9,3.8,5.2,6.5c1.3,2.6,1.9,5.7,1.9,9.3
		c0,5-1.3,9.4-3.9,13.1c-2.6,3.7-6.5,6.1-11.6,7.1v0.2c2.6,0.4,4.7,1.1,6.5,2.1c1.7,1,3.1,2.3,4.2,3.8c1.1,1.6,1.9,3.4,2.3,5.4
		c0.5,2,0.8,4.2,0.9,6.6c0.1,1.3,0.1,3,0.2,4.9c0.1,1.9,0.2,3.9,0.4,5.8c0.2,2,0.6,3.8,1.1,5.6c0.5,1.7,1.1,3.1,1.9,4.1h-8.3
		c-0.4-0.7-0.8-1.6-1.1-2.7c-0.3-1.1-0.4-2.2-0.6-3.3c-0.1-1.1-0.2-2.3-0.3-3.4c-0.1-1.1-0.1-2.1-0.2-2.9c-0.2-2.8-0.4-5.6-0.7-8.4
		c-0.3-2.8-1-5.3-2.1-7.5c-1.1-2.2-2.6-3.9-4.7-5.3c-2-1.3-4.8-1.9-8.4-1.8h-28.7v35.3h-7.6V34.9H1051z M1050.5,72.6
		c2.3,0,4.5-0.4,6.6-1.1c2.1-0.7,3.9-1.7,5.4-3.1c1.6-1.3,2.8-2.9,3.7-4.8s1.4-4.1,1.4-6.5c0-4.9-1.4-8.7-4.2-11.6
		c-2.8-2.8-7.1-4.2-12.9-4.2h-28.3v31.3H1050.5z"/>
</g>
</svg>
