<svg id="mermaid-diagram-desktop" width="100%" xmlns="http://www.w3.org/2000/svg" style="max-width: 1873px;" viewBox="-50 -10 1873 2050" role="graphics-document document" aria-roledescription="sequence"><g><rect x="1623" y="1964" fill="#eaeaea" stroke="#666" width="150" height="65" name="Event Handler" rx="3" ry="3" class="actor actor-bottom"/><text x="1698" y="1996.5" style="text-anchor: middle; font-size: 16px; font-weight: 400; font-family: Arial, sans-serif;" dominant-baseline="central" alignment-baseline="central" class="actor actor-box"><tspan x="1698" dy="0">Event Handler</tspan></text></g><g><rect x="1423" y="1964" fill="#eaeaea" stroke="#666" width="150" height="65" name="protocomm_httpd" rx="3" ry="3" class="actor actor-bottom"/><text x="1498" y="1996.5" style="text-anchor: middle; font-size: 16px; font-weight: 400; font-family: Arial, sans-serif;" dominant-baseline="central" alignment-baseline="central" class="actor actor-box"><tspan x="1498" dy="0">protocomm_httpd</tspan></text></g><g><rect x="1072" y="1964" fill="#eaeaea" stroke="#666" width="150" height="65" name="esp_wifi" rx="3" ry="3" class="actor actor-bottom"/><text x="1147" y="1996.5" style="text-anchor: middle; font-size: 16px; font-weight: 400; font-family: Arial, sans-serif;" dominant-baseline="central" alignment-baseline="central" class="actor actor-box"><tspan x="1147" dy="0">esp_wifi</tspan></text></g><g><rect x="872" y="1964" fill="#eaeaea" stroke="#666" width="150" height="65" name="protocomm" rx="3" ry="3" class="actor actor-bottom"/><text x="947" y="1996.5" style="text-anchor: middle; font-size: 16px; font-weight: 400; font-family: Arial, sans-serif;" dominant-baseline="central" alignment-baseline="central" class="actor actor-box"><tspan x="947" dy="0">protocomm</tspan></text></g><g><rect x="672" y="1964" fill="#eaeaea" stroke="#666" width="150" height="65" name="scheme_softap" rx="3" ry="3" class="actor actor-bottom"/><text x="747" y="1996.5" style="text-anchor: middle; font-size: 16px; font-weight: 400; font-family: Arial, sans-serif;" dominant-baseline="central" alignment-baseline="central" class="actor actor-box"><tspan x="747" dy="0">scheme_softap</tspan></text></g><g><rect x="348.5" y="1964" fill="#eaeaea" stroke="#666" width="157" height="65" name="network_prov_mgr" rx="3" ry="3" class="actor actor-bottom"/><text x="427" y="1996.5" style="text-anchor: middle; font-size: 16px; font-weight: 400; font-family: Arial, sans-serif;" dominant-baseline="central" alignment-baseline="central" class="actor actor-box"><tspan x="427" dy="0">network_prov_mgr</tspan></text></g><g><rect x="0" y="1964" fill="#eaeaea" stroke="#666" width="150" height="65" name="Application" rx="3" ry="3" class="actor actor-bottom"/><text x="75" y="1996.5" style="text-anchor: middle; font-size: 16px; font-weight: 400; font-family: Arial, sans-serif;" dominant-baseline="central" alignment-baseline="central" class="actor actor-box"><tspan x="75" dy="0">Application</tspan></text></g><g><line id="actor6" x1="1698" y1="65" x2="1698" y2="1964" class="actor-line 200" stroke-width="0.5px" stroke="#999" name="Event Handler" data-et="life-line" data-id="Event Handler"/><g id="root-6" data-et="participant" data-type="participant" data-id="Event Handler"><rect x="1623" y="0" fill="#eaeaea" stroke="#666" width="150" height="65" name="Event Handler" rx="3" ry="3" class="actor actor-top"/><text x="1698" y="32.5" style="text-anchor: middle; font-size: 16px; font-weight: 400; font-family: Arial, sans-serif;" dominant-baseline="central" alignment-baseline="central" class="actor actor-box"><tspan x="1698" dy="0">Event Handler</tspan></text></g></g><g><line id="actor5" x1="1498" y1="65" x2="1498" y2="1964" class="actor-line 200" stroke-width="0.5px" stroke="#999" name="protocomm_httpd" data-et="life-line" data-id="protocomm_httpd"/><g id="root-5" data-et="participant" data-type="participant" data-id="protocomm_httpd"><rect x="1423" y="0" fill="#eaeaea" stroke="#666" width="150" height="65" name="protocomm_httpd" rx="3" ry="3" class="actor actor-top"/><text x="1498" y="32.5" style="text-anchor: middle; font-size: 16px; font-weight: 400; font-family: Arial, sans-serif;" dominant-baseline="central" alignment-baseline="central" class="actor actor-box"><tspan x="1498" dy="0">protocomm_httpd</tspan></text></g></g><g><line id="actor4" x1="1147" y1="65" x2="1147" y2="1964" class="actor-line 200" stroke-width="0.5px" stroke="#999" name="esp_wifi" data-et="life-line" data-id="esp_wifi"/><g id="root-4" data-et="participant" data-type="participant" data-id="esp_wifi"><rect x="1072" y="0" fill="#eaeaea" stroke="#666" width="150" height="65" name="esp_wifi" rx="3" ry="3" class="actor actor-top"/><text x="1147" y="32.5" style="text-anchor: middle; font-size: 16px; font-weight: 400; font-family: Arial, sans-serif;" dominant-baseline="central" alignment-baseline="central" class="actor actor-box"><tspan x="1147" dy="0">esp_wifi</tspan></text></g></g><g><line id="actor3" x1="947" y1="65" x2="947" y2="1964" class="actor-line 200" stroke-width="0.5px" stroke="#999" name="protocomm" data-et="life-line" data-id="protocomm"/><g id="root-3" data-et="participant" data-type="participant" data-id="protocomm"><rect x="872" y="0" fill="#eaeaea" stroke="#666" width="150" height="65" name="protocomm" rx="3" ry="3" class="actor actor-top"/><text x="947" y="32.5" style="text-anchor: middle; font-size: 16px; font-weight: 400; font-family: Arial, sans-serif;" dominant-baseline="central" alignment-baseline="central" class="actor actor-box"><tspan x="947" dy="0">protocomm</tspan></text></g></g><g><line id="actor2" x1="747" y1="65" x2="747" y2="1964" class="actor-line 200" stroke-width="0.5px" stroke="#999" name="scheme_softap" data-et="life-line" data-id="scheme_softap"/><g id="root-2" data-et="participant" data-type="participant" data-id="scheme_softap"><rect x="672" y="0" fill="#eaeaea" stroke="#666" width="150" height="65" name="scheme_softap" rx="3" ry="3" class="actor actor-top"/><text x="747" y="32.5" style="text-anchor: middle; font-size: 16px; font-weight: 400; font-family: Arial, sans-serif;" dominant-baseline="central" alignment-baseline="central" class="actor actor-box"><tspan x="747" dy="0">scheme_softap</tspan></text></g></g><g><line id="actor1" x1="427" y1="65" x2="427" y2="1964" class="actor-line 200" stroke-width="0.5px" stroke="#999" name="network_prov_mgr" data-et="life-line" data-id="network_prov_mgr"/><g id="root-1" data-et="participant" data-type="participant" data-id="network_prov_mgr"><rect x="348.5" y="0" fill="#eaeaea" stroke="#666" width="157" height="65" name="network_prov_mgr" rx="3" ry="3" class="actor actor-top"/><text x="427" y="32.5" style="text-anchor: middle; font-size: 16px; font-weight: 400; font-family: Arial, sans-serif;" dominant-baseline="central" alignment-baseline="central" class="actor actor-box"><tspan x="427" dy="0">network_prov_mgr</tspan></text></g></g><g><line id="actor0" x1="75" y1="65" x2="75" y2="1964" class="actor-line 200" stroke-width="0.5px" stroke="#999" name="Application" data-et="life-line" data-id="Application"/><g id="root-0" data-et="participant" data-type="participant" data-id="Application"><rect x="0" y="0" fill="#eaeaea" stroke="#666" width="150" height="65" name="Application" rx="3" ry="3" class="actor actor-top"/><text x="75" y="32.5" style="text-anchor: middle; font-size: 16px; font-weight: 400; font-family: Arial, sans-serif;" dominant-baseline="central" alignment-baseline="central" class="actor actor-box"><tspan x="75" dy="0">Application</tspan></text></g></g><style>#mermaid-diagram-desktop{font-family:Arial,sans-serif;font-size:16px;fill:#333;}@keyframes edge-animation-frame{from{stroke-dashoffset:0;}}@keyframes dash{to{stroke-dashoffset:0;}}#mermaid-diagram-desktop .edge-animation-slow{stroke-dasharray:9,5!important;stroke-dashoffset:900;animation:dash 50s linear infinite;stroke-linecap:round;}#mermaid-diagram-desktop .edge-animation-fast{stroke-dasharray:9,5!important;stroke-dashoffset:900;animation:dash 20s linear infinite;stroke-linecap:round;}#mermaid-diagram-desktop .error-icon{fill:#552222;}#mermaid-diagram-desktop .error-text{fill:#552222;stroke:#552222;}#mermaid-diagram-desktop .edge-thickness-normal{stroke-width:1px;}#mermaid-diagram-desktop .edge-thickness-thick{stroke-width:3.5px;}#mermaid-diagram-desktop .edge-pattern-solid{stroke-dasharray:0;}#mermaid-diagram-desktop .edge-thickness-invisible{stroke-width:0;fill:none;}#mermaid-diagram-desktop .edge-pattern-dashed{stroke-dasharray:3;}#mermaid-diagram-desktop .edge-pattern-dotted{stroke-dasharray:2;}#mermaid-diagram-desktop .marker{fill:#333333;stroke:#333333;}#mermaid-diagram-desktop .marker.cross{stroke:#333333;}#mermaid-diagram-desktop svg{font-family:Arial,sans-serif;font-size:16px;}#mermaid-diagram-desktop p{margin:0;}#mermaid-diagram-desktop .actor{stroke:#9370DB;fill:#ECECFF;stroke-width:1;}#mermaid-diagram-desktop rect.actor.outer-path[data-look="neo"]{filter:drop-shadow(1px 2px 2px rgba(185, 185, 185, 1));}#mermaid-diagram-desktop rect.note[data-look="neo"]{stroke:#aaaa33;fill:#fff5ad;filter:drop-shadow(1px 2px 2px rgba(185, 185, 185, 1));}#mermaid-diagram-desktop text.actor&gt;tspan{fill:black;stroke:none;}#mermaid-diagram-desktop .actor-line{stroke:#9370DB;}#mermaid-diagram-desktop .innerArc{stroke-width:1.5;stroke-dasharray:none;}#mermaid-diagram-desktop .messageLine0{stroke-width:1.5;stroke-dasharray:none;stroke:#333;}#mermaid-diagram-desktop .messageLine1{stroke-width:1.5;stroke-dasharray:2,2;stroke:#333;}#mermaid-diagram-desktop [id$="-arrowhead"] path{fill:#333;stroke:#333;}#mermaid-diagram-desktop .sequenceNumber{fill:white;}#mermaid-diagram-desktop [id$="-sequencenumber"]{fill:#333;}#mermaid-diagram-desktop [id$="-crosshead"] path{fill:#333;stroke:#333;}#mermaid-diagram-desktop .messageText{fill:#333;stroke:none;}#mermaid-diagram-desktop .labelBox{stroke:#9370DB;fill:#ECECFF;filter:none;}#mermaid-diagram-desktop .labelText,#mermaid-diagram-desktop .labelText&gt;tspan{fill:black;stroke:none;}#mermaid-diagram-desktop .loopText,#mermaid-diagram-desktop .loopText&gt;tspan{fill:black;stroke:none;}#mermaid-diagram-desktop .loopLine{stroke-width:2px;stroke-dasharray:2,2;stroke:#9370DB;fill:#9370DB;}#mermaid-diagram-desktop .note{stroke:#aaaa33;fill:#fff5ad;}#mermaid-diagram-desktop .noteText,#mermaid-diagram-desktop .noteText&gt;tspan{fill:black;stroke:none;font-weight:normal;}#mermaid-diagram-desktop .activation0{fill:#f4f4f4;stroke:#666;}#mermaid-diagram-desktop .activation1{fill:#f4f4f4;stroke:#666;}#mermaid-diagram-desktop .activation2{fill:#f4f4f4;stroke:#666;}#mermaid-diagram-desktop .actorPopupMenu{position:absolute;}#mermaid-diagram-desktop .actorPopupMenuPanel{position:absolute;fill:#ECECFF;box-shadow:0px 8px 16px 0px rgba(0,0,0,0.2);filter:drop-shadow(3px 5px 2px rgb(0 0 0 / 0.4));}#mermaid-diagram-desktop .actor-man circle,#mermaid-diagram-desktop line{fill:#ECECFF;stroke-width:2px;}#mermaid-diagram-desktop g rect.rect{filter:drop-shadow(1px 2px 2px rgba(185, 185, 185, 1));stroke:#9370DB;}#mermaid-diagram-desktop .node .neo-node{stroke:#9370DB;}#mermaid-diagram-desktop [data-look="neo"].node rect,#mermaid-diagram-desktop [data-look="neo"].cluster rect,#mermaid-diagram-desktop [data-look="neo"].node polygon{stroke:#9370DB;filter:drop-shadow(1px 2px 2px rgba(185, 185, 185, 1));}#mermaid-diagram-desktop [data-look="neo"].node path{stroke:#9370DB;stroke-width:1px;}#mermaid-diagram-desktop [data-look="neo"].node .outer-path{filter:drop-shadow(1px 2px 2px rgba(185, 185, 185, 1));}#mermaid-diagram-desktop [data-look="neo"].node .neo-line path{stroke:#9370DB;filter:none;}#mermaid-diagram-desktop [data-look="neo"].node circle{stroke:#9370DB;filter:drop-shadow(1px 2px 2px rgba(185, 185, 185, 1));}#mermaid-diagram-desktop [data-look="neo"].node circle .state-start{fill:#000000;}#mermaid-diagram-desktop [data-look="neo"].icon-shape .icon{fill:#9370DB;filter:drop-shadow(1px 2px 2px rgba(185, 185, 185, 1));}#mermaid-diagram-desktop [data-look="neo"].icon-shape .icon-neo path{stroke:#9370DB;filter:drop-shadow(1px 2px 2px rgba(185, 185, 185, 1));}#mermaid-diagram-desktop :root{--mermaid-font-family:Arial,sans-serif;}</style><g/><defs><symbol id="mermaid-diagram-desktop-computer" width="24" height="24"><path transform="scale(.5)" d="M2 2v13h20v-13h-20zm18 11h-16v-9h16v9zm-10.228 6l.466-1h3.524l.467 1h-4.457zm14.228 3h-24l2-6h2.104l-1.33 4h18.45l-1.297-4h2.073l2 6zm-5-10h-14v-7h14v7z"/></symbol></defs><defs><symbol id="mermaid-diagram-desktop-database" fill-rule="evenodd" clip-rule="evenodd"><path transform="scale(.5)" d="M12.258.001l.256.004.255.005.253.008.251.01.249.012.247.015.246.016.242.019.241.02.239.023.236.024.233.027.231.028.229.031.225.032.223.034.22.036.217.038.214.04.211.041.208.043.205.045.201.046.198.048.194.05.191.051.187.053.183.054.18.056.175.057.172.059.168.06.163.061.16.063.155.064.15.066.074.033.073.033.071.034.07.034.069.035.068.035.067.035.066.035.064.036.064.036.062.036.06.036.06.037.058.037.058.037.055.038.055.038.053.038.052.038.051.039.05.039.048.039.047.039.045.04.044.04.043.04.041.04.04.041.039.041.037.041.036.041.034.041.033.042.032.042.03.042.029.042.027.042.026.043.024.043.023.043.021.043.02.043.018.044.017.043.015.044.013.044.012.044.011.045.009.044.007.045.006.045.004.045.002.045.001.045v17l-.001.045-.002.045-.004.045-.006.045-.007.045-.009.044-.011.045-.012.044-.013.044-.015.044-.017.043-.018.044-.02.043-.021.043-.023.043-.024.043-.026.043-.027.042-.029.042-.03.042-.032.042-.033.042-.034.041-.036.041-.037.041-.039.041-.04.041-.041.04-.043.04-.044.04-.045.04-.047.039-.048.039-.05.039-.051.039-.052.038-.053.038-.055.038-.055.038-.058.037-.058.037-.06.037-.06.036-.062.036-.064.036-.064.036-.066.035-.067.035-.068.035-.069.035-.07.034-.071.034-.073.033-.074.033-.15.066-.155.064-.16.063-.163.061-.168.06-.172.059-.175.057-.18.056-.183.054-.187.053-.191.051-.194.05-.198.048-.201.046-.205.045-.208.043-.211.041-.214.04-.217.038-.22.036-.223.034-.225.032-.229.031-.231.028-.233.027-.236.024-.239.023-.241.02-.242.019-.246.016-.247.015-.249.012-.251.01-.253.008-.255.005-.256.004-.258.001-.258-.001-.256-.004-.255-.005-.253-.008-.251-.01-.249-.012-.247-.015-.245-.016-.243-.019-.241-.02-.238-.023-.236-.024-.234-.027-.231-.028-.228-.031-.226-.032-.223-.034-.22-.036-.217-.038-.214-.04-.211-.041-.208-.043-.204-.045-.201-.046-.198-.048-.195-.05-.19-.051-.187-.053-.184-.054-.179-.056-.176-.057-.172-.059-.167-.06-.164-.061-.159-.063-.155-.064-.151-.066-.074-.033-.072-.033-.072-.034-.07-.034-.069-.035-.068-.035-.067-.035-.066-.035-.064-.036-.063-.036-.062-.036-.061-.036-.06-.037-.058-.037-.057-.037-.056-.038-.055-.038-.053-.038-.052-.038-.051-.039-.049-.039-.049-.039-.046-.039-.046-.04-.044-.04-.043-.04-.041-.04-.04-.041-.039-.041-.037-.041-.036-.041-.034-.041-.033-.042-.032-.042-.03-.042-.029-.042-.027-.042-.026-.043-.024-.043-.023-.043-.021-.043-.02-.043-.018-.044-.017-.043-.015-.044-.013-.044-.012-.044-.011-.045-.009-.044-.007-.045-.006-.045-.004-.045-.002-.045-.001-.045v-17l.001-.045.002-.045.004-.045.006-.045.007-.045.009-.044.011-.045.012-.044.013-.044.015-.044.017-.043.018-.044.02-.043.021-.043.023-.043.024-.043.026-.043.027-.042.029-.042.03-.042.032-.042.033-.042.034-.041.036-.041.037-.041.039-.041.04-.041.041-.04.043-.04.044-.04.046-.04.046-.039.049-.039.049-.039.051-.039.052-.038.053-.038.055-.038.056-.038.057-.037.058-.037.06-.037.061-.036.062-.036.063-.036.064-.036.066-.035.067-.035.068-.035.069-.035.07-.034.072-.034.072-.033.074-.033.151-.066.155-.064.159-.063.164-.061.167-.06.172-.059.176-.057.179-.056.184-.054.187-.053.19-.051.195-.05.198-.048.201-.046.204-.045.208-.043.211-.041.214-.04.217-.038.22-.036.223-.034.226-.032.228-.031.231-.028.234-.027.236-.024.238-.023.241-.02.243-.019.245-.016.247-.015.249-.012.251-.01.253-.008.255-.005.256-.004.258-.001.258.001zm-9.258 20.499v.01l.001.021.003.021.004.022.005.021.006.022.007.022.009.023.01.022.011.023.012.023.013.023.015.023.016.024.017.023.018.024.019.024.021.024.022.025.023.024.024.025.052.049.056.05.061.051.066.051.07.051.075.051.079.052.084.052.088.052.092.052.097.052.102.051.105.052.11.052.114.051.119.051.123.051.127.05.131.05.135.05.139.048.144.049.147.047.152.047.155.047.16.045.163.045.167.043.171.043.176.041.178.041.183.039.187.039.19.037.194.035.197.035.202.033.204.031.209.03.212.029.216.027.219.025.222.024.226.021.23.02.233.018.236.016.24.015.243.012.246.01.249.008.253.005.256.004.259.001.26-.001.257-.004.254-.005.25-.008.247-.011.244-.012.241-.014.237-.016.233-.018.231-.021.226-.021.224-.024.22-.026.216-.027.212-.028.21-.031.205-.031.202-.034.198-.034.194-.036.191-.037.187-.039.183-.04.179-.04.175-.042.172-.043.168-.044.163-.045.16-.046.155-.046.152-.047.148-.048.143-.049.139-.049.136-.05.131-.05.126-.05.123-.051.118-.052.114-.051.11-.052.106-.052.101-.052.096-.052.092-.052.088-.053.083-.051.079-.052.074-.052.07-.051.065-.051.06-.051.056-.05.051-.05.023-.024.023-.025.021-.024.02-.024.019-.024.018-.024.017-.024.015-.023.014-.024.013-.023.012-.023.01-.023.01-.022.008-.022.006-.022.006-.022.004-.022.004-.021.001-.021.001-.021v-4.127l-.077.055-.08.053-.083.054-.085.053-.087.052-.09.052-.093.051-.095.05-.097.05-.1.049-.102.049-.105.048-.106.047-.109.047-.111.046-.114.045-.115.045-.118.044-.12.043-.122.042-.124.042-.126.041-.128.04-.13.04-.132.038-.134.038-.135.037-.138.037-.139.035-.142.035-.143.034-.144.033-.147.032-.148.031-.15.03-.151.03-.153.029-.154.027-.156.027-.158.026-.159.025-.161.024-.162.023-.163.022-.165.021-.166.02-.167.019-.169.018-.169.017-.171.016-.173.015-.173.014-.175.013-.175.012-.177.011-.178.01-.179.008-.179.008-.181.006-.182.005-.182.004-.184.003-.184.002h-.37l-.184-.002-.184-.003-.182-.004-.182-.005-.181-.006-.179-.008-.179-.008-.178-.01-.176-.011-.176-.012-.175-.013-.173-.014-.172-.015-.171-.016-.17-.017-.169-.018-.167-.019-.166-.02-.165-.021-.163-.022-.162-.023-.161-.024-.159-.025-.157-.026-.156-.027-.155-.027-.153-.029-.151-.03-.15-.03-.148-.031-.146-.032-.145-.033-.143-.034-.141-.035-.14-.035-.137-.037-.136-.037-.134-.038-.132-.038-.13-.04-.128-.04-.126-.041-.124-.042-.122-.042-.12-.044-.117-.043-.116-.045-.113-.045-.112-.046-.109-.047-.106-.047-.105-.048-.102-.049-.1-.049-.097-.05-.095-.05-.093-.052-.09-.051-.087-.052-.085-.053-.083-.054-.08-.054-.077-.054v4.127zm0-5.654v.011l.001.021.003.021.004.021.005.022.006.022.007.022.009.022.01.022.011.023.012.023.013.023.015.024.016.023.017.024.018.024.019.024.021.024.022.024.023.025.024.024.052.05.056.05.061.05.066.051.07.051.075.052.079.051.084.052.088.052.092.052.097.052.102.052.105.052.11.051.114.051.119.052.123.05.127.051.131.05.135.049.139.049.144.048.147.048.152.047.155.046.16.045.163.045.167.044.171.042.176.042.178.04.183.04.187.038.19.037.194.036.197.034.202.033.204.032.209.03.212.028.216.027.219.025.222.024.226.022.23.02.233.018.236.016.24.014.243.012.246.01.249.008.253.006.256.003.259.001.26-.001.257-.003.254-.006.25-.008.247-.01.244-.012.241-.015.237-.016.233-.018.231-.02.226-.022.224-.024.22-.025.216-.027.212-.029.21-.03.205-.032.202-.033.198-.035.194-.036.191-.037.187-.039.183-.039.179-.041.175-.042.172-.043.168-.044.163-.045.16-.045.155-.047.152-.047.148-.048.143-.048.139-.05.136-.049.131-.05.126-.051.123-.051.118-.051.114-.052.11-.052.106-.052.101-.052.096-.052.092-.052.088-.052.083-.052.079-.052.074-.051.07-.052.065-.051.06-.05.056-.051.051-.049.023-.025.023-.024.021-.025.02-.024.019-.024.018-.024.017-.024.015-.023.014-.023.013-.024.012-.022.01-.023.01-.023.008-.022.006-.022.006-.022.004-.021.004-.022.001-.021.001-.021v-4.139l-.077.054-.08.054-.083.054-.085.052-.087.053-.09.051-.093.051-.095.051-.097.05-.1.049-.102.049-.105.048-.106.047-.109.047-.111.046-.114.045-.115.044-.118.044-.12.044-.122.042-.124.042-.126.041-.128.04-.13.039-.132.039-.134.038-.135.037-.138.036-.139.036-.142.035-.143.033-.144.033-.147.033-.148.031-.15.03-.151.03-.153.028-.154.028-.156.027-.158.026-.159.025-.161.024-.162.023-.163.022-.165.021-.166.02-.167.019-.169.018-.169.017-.171.016-.173.015-.173.014-.175.013-.175.012-.177.011-.178.009-.179.009-.179.007-.181.007-.182.005-.182.004-.184.003-.184.002h-.37l-.184-.002-.184-.003-.182-.004-.182-.005-.181-.007-.179-.007-.179-.009-.178-.009-.176-.011-.176-.012-.175-.013-.173-.014-.172-.015-.171-.016-.17-.017-.169-.018-.167-.019-.166-.02-.165-.021-.163-.022-.162-.023-.161-.024-.159-.025-.157-.026-.156-.027-.155-.028-.153-.028-.151-.03-.15-.03-.148-.031-.146-.033-.145-.033-.143-.033-.141-.035-.14-.036-.137-.036-.136-.037-.134-.038-.132-.039-.13-.039-.128-.04-.126-.041-.124-.042-.122-.043-.12-.043-.117-.044-.116-.044-.113-.046-.112-.046-.109-.046-.106-.047-.105-.048-.102-.049-.1-.049-.097-.05-.095-.051-.093-.051-.09-.051-.087-.053-.085-.052-.083-.054-.08-.054-.077-.054v4.139zm0-5.666v.011l.001.02.003.022.004.021.005.022.006.021.007.022.009.023.01.022.011.023.012.023.013.023.015.023.016.024.017.024.018.023.019.024.021.025.022.024.023.024.024.025.052.05.056.05.061.05.066.051.07.051.075.052.079.051.084.052.088.052.092.052.097.052.102.052.105.051.11.052.114.051.119.051.123.051.127.05.131.05.135.05.139.049.144.048.147.048.152.047.155.046.16.045.163.045.167.043.171.043.176.042.178.04.183.04.187.038.19.037.194.036.197.034.202.033.204.032.209.03.212.028.216.027.219.025.222.024.226.021.23.02.233.018.236.017.24.014.243.012.246.01.249.008.253.006.256.003.259.001.26-.001.257-.003.254-.006.25-.008.247-.01.244-.013.241-.014.237-.016.233-.018.231-.02.226-.022.224-.024.22-.025.216-.027.212-.029.21-.03.205-.032.202-.033.198-.035.194-.036.191-.037.187-.039.183-.039.179-.041.175-.042.172-.043.168-.044.163-.045.16-.045.155-.047.152-.047.148-.048.143-.049.139-.049.136-.049.131-.051.126-.05.123-.051.118-.052.114-.051.11-.052.106-.052.101-.052.096-.052.092-.052.088-.052.083-.052.079-.052.074-.052.07-.051.065-.051.06-.051.056-.05.051-.049.023-.025.023-.025.021-.024.02-.024.019-.024.018-.024.017-.024.015-.023.014-.024.013-.023.012-.023.01-.022.01-.023.008-.022.006-.022.006-.022.004-.022.004-.021.001-.021.001-.021v-4.153l-.077.054-.08.054-.083.053-.085.053-.087.053-.09.051-.093.051-.095.051-.097.05-.1.049-.102.048-.105.048-.106.048-.109.046-.111.046-.114.046-.115.044-.118.044-.12.043-.122.043-.124.042-.126.041-.128.04-.13.039-.132.039-.134.038-.135.037-.138.036-.139.036-.142.034-.143.034-.144.033-.147.032-.148.032-.15.03-.151.03-.153.028-.154.028-.156.027-.158.026-.159.024-.161.024-.162.023-.163.023-.165.021-.166.02-.167.019-.169.018-.169.017-.171.016-.173.015-.173.014-.175.013-.175.012-.177.01-.178.01-.179.009-.179.007-.181.006-.182.006-.182.004-.184.003-.184.001-.185.001-.185-.001-.184-.001-.184-.003-.182-.004-.182-.006-.181-.006-.179-.007-.179-.009-.178-.01-.176-.01-.176-.012-.175-.013-.173-.014-.172-.015-.171-.016-.17-.017-.169-.018-.167-.019-.166-.02-.165-.021-.163-.023-.162-.023-.161-.024-.159-.024-.157-.026-.156-.027-.155-.028-.153-.028-.151-.03-.15-.03-.148-.032-.146-.032-.145-.033-.143-.034-.141-.034-.14-.036-.137-.036-.136-.037-.134-.038-.132-.039-.13-.039-.128-.041-.126-.041-.124-.041-.122-.043-.12-.043-.117-.044-.116-.044-.113-.046-.112-.046-.109-.046-.106-.048-.105-.048-.102-.048-.1-.05-.097-.049-.095-.051-.093-.051-.09-.052-.087-.052-.085-.053-.083-.053-.08-.054-.077-.054v4.153zm8.74-8.179l-.257.004-.254.005-.25.008-.247.011-.244.012-.241.014-.237.016-.233.018-.231.021-.226.022-.224.023-.22.026-.216.027-.212.028-.21.031-.205.032-.202.033-.198.034-.194.036-.191.038-.187.038-.183.04-.179.041-.175.042-.172.043-.168.043-.163.045-.16.046-.155.046-.152.048-.148.048-.143.048-.139.049-.136.05-.131.05-.126.051-.123.051-.118.051-.114.052-.11.052-.106.052-.101.052-.096.052-.092.052-.088.052-.083.052-.079.052-.074.051-.07.052-.065.051-.06.05-.056.05-.051.05-.023.025-.023.024-.021.024-.02.025-.019.024-.018.024-.017.023-.015.024-.014.023-.013.023-.012.023-.01.023-.01.022-.008.022-.006.023-.006.021-.004.022-.004.021-.001.021-.001.021.001.021.001.021.004.021.004.022.006.021.006.023.008.022.01.022.01.023.012.023.013.023.014.023.015.024.017.023.018.024.019.024.02.025.021.024.023.024.023.025.051.05.056.05.06.05.065.051.07.052.074.051.079.052.083.052.088.052.092.052.096.052.101.052.106.052.11.052.114.052.118.051.123.051.126.051.131.05.136.05.139.049.143.048.148.048.152.048.155.046.16.046.163.045.168.043.172.043.175.042.179.041.183.04.187.038.191.038.194.036.198.034.202.033.205.032.21.031.212.028.216.027.22.026.224.023.226.022.231.021.233.018.237.016.241.014.244.012.247.011.25.008.254.005.257.004.26.001.26-.001.257-.004.254-.005.25-.008.247-.011.244-.012.241-.014.237-.016.233-.018.231-.021.226-.022.224-.023.22-.026.216-.027.212-.028.21-.031.205-.032.202-.033.198-.034.194-.036.191-.038.187-.038.183-.04.179-.041.175-.042.172-.043.168-.043.163-.045.16-.046.155-.046.152-.048.148-.048.143-.048.139-.049.136-.05.131-.05.126-.051.123-.051.118-.051.114-.052.11-.052.106-.052.101-.052.096-.052.092-.052.088-.052.083-.052.079-.052.074-.051.07-.052.065-.051.06-.05.056-.05.051-.05.023-.025.023-.024.021-.024.02-.025.019-.024.018-.024.017-.023.015-.024.014-.023.013-.023.012-.023.01-.023.01-.022.008-.022.006-.023.006-.021.004-.022.004-.021.001-.021.001-.021-.001-.021-.001-.021-.004-.021-.004-.022-.006-.021-.006-.023-.008-.022-.01-.022-.01-.023-.012-.023-.013-.023-.014-.023-.015-.024-.017-.023-.018-.024-.019-.024-.02-.025-.021-.024-.023-.024-.023-.025-.051-.05-.056-.05-.06-.05-.065-.051-.07-.052-.074-.051-.079-.052-.083-.052-.088-.052-.092-.052-.096-.052-.101-.052-.106-.052-.11-.052-.114-.052-.118-.051-.123-.051-.126-.051-.131-.05-.136-.05-.139-.049-.143-.048-.148-.048-.152-.048-.155-.046-.16-.046-.163-.045-.168-.043-.172-.043-.175-.042-.179-.041-.183-.04-.187-.038-.191-.038-.194-.036-.198-.034-.202-.033-.205-.032-.21-.031-.212-.028-.216-.027-.22-.026-.224-.023-.226-.022-.231-.021-.233-.018-.237-.016-.241-.014-.244-.012-.247-.011-.25-.008-.254-.005-.257-.004-.26-.001-.26.001z"/></symbol></defs><defs><symbol id="mermaid-diagram-desktop-clock" width="24" height="24"><path transform="scale(.5)" d="M12 2c5.514 0 10 4.486 10 10s-4.486 10-10 10-10-4.486-10-10 4.486-10 10-10zm0-2c-6.627 0-12 5.373-12 12s5.373 12 12 12 12-5.373 12-12-5.373-12-12-12zm5.848 12.459c.202.038.202.333.001.372-1.907.361-6.045 1.111-6.547 1.111-.719 0-1.301-.582-1.301-1.301 0-.512.77-5.447 1.125-7.445.034-.192.312-.181.343.014l.985 6.238 5.394 1.011z"/></symbol></defs><defs><marker id="mermaid-diagram-desktop-arrowhead" refX="7.9" refY="5" markerUnits="userSpaceOnUse" markerWidth="12" markerHeight="12" orient="auto-start-reverse"><path d="M -1 0 L 10 5 L 0 10 z"/></marker></defs><defs><marker id="mermaid-diagram-desktop-crosshead" markerWidth="15" markerHeight="8" orient="auto" refX="4" refY="4.5"><path fill="none" stroke="#000000" style="stroke-dasharray: 0px, 0px;" stroke-width="1pt" d="M 1,2 L 6,7 M 6,2 L 1,7"/></marker></defs><defs><marker id="mermaid-diagram-desktop-filled-head" refX="15.5" refY="7" markerWidth="20" markerHeight="28" orient="auto"><path d="M 18,7 L9,13 L14,7 L9,1 Z"/></marker></defs><defs><marker id="mermaid-diagram-desktop-sequencenumber" refX="15" refY="15" markerWidth="60" markerHeight="40" orient="auto"><circle cx="15" cy="15" r="6"/></marker></defs><defs><marker id="mermaid-diagram-desktop-solidTopArrowHead" refX="7.9" refY="7.25" markerUnits="userSpaceOnUse" markerWidth="12" markerHeight="12" orient="auto-start-reverse"><path d="M 0 0 L 10 8 L 0 8 z"/></marker></defs><defs><marker id="mermaid-diagram-desktop-solidBottomArrowHead" refX="7.9" refY="0.75" markerUnits="userSpaceOnUse" markerWidth="12" markerHeight="12" orient="auto-start-reverse"><path d="M 0 0 L 10 0 L 0 8 z"/></marker></defs><defs><marker id="mermaid-diagram-desktop-stickTopArrowHead" refX="7.5" refY="7" markerUnits="userSpaceOnUse" markerWidth="12" markerHeight="12" orient="auto-start-reverse"><path d="M 0 0 L 7 7" stroke="black" stroke-width="1.5" fill="none"/></marker></defs><defs><marker id="mermaid-diagram-desktop-stickBottomArrowHead" refX="7.5" refY="0" markerUnits="userSpaceOnUse" markerWidth="12" markerHeight="12" orient="auto-start-reverse"><path d="M 0 7 L 7 0" stroke="black" stroke-width="1.5" fill="none"/></marker></defs><g data-et="note" data-id="i0"><rect x="50" y="75" fill="#EDF2AE" stroke="#666" width="1673" height="39" class="note"/><text x="887" y="80" text-anchor="middle" dominant-baseline="middle" alignment-baseline="middle" style="font-family: Arial, sans-serif; font-size: 16px; font-weight: 400;" class="noteText" dy="1em"><tspan x="887">1. INITIALIZATION PHASE</tspan></text></g><g data-et="note" data-id="i5"><rect x="50" y="346" fill="#EDF2AE" stroke="#666" width="1673" height="39" class="note"/><text x="887" y="351" text-anchor="middle" dominant-baseline="middle" alignment-baseline="middle" style="font-family: Arial, sans-serif; font-size: 16px; font-weight: 400;" class="noteText" dy="1em"><tspan x="887">2. AP STARTUP PHASE</tspan></text></g><g data-et="note" data-id="i10"><rect x="50" y="647" fill="#EDF2AE" stroke="#666" width="1673" height="39" class="note"/><text x="887" y="652" text-anchor="middle" dominant-baseline="middle" alignment-baseline="middle" style="font-family: Arial, sans-serif; font-size: 16px; font-weight: 400;" class="noteText" dy="1em"><tspan x="887">3. PROVISIONING PHASE</tspan></text></g><g data-et="note" data-id="i16"><rect x="50" y="936" fill="#EDF2AE" stroke="#666" width="1673" height="39" class="note"/><text x="887" y="941" text-anchor="middle" dominant-baseline="middle" alignment-baseline="middle" style="font-family: Arial, sans-serif; font-size: 16px; font-weight: 400;" class="noteText" dy="1em"><tspan x="887">4. CONNECTION PHASE</tspan></text></g><g data-et="note" data-id="i21"><rect x="50" y="1207" fill="#EDF2AE" stroke="#666" width="1673" height="39" class="note"/><text x="887" y="1212" text-anchor="middle" dominant-baseline="middle" alignment-baseline="middle" style="font-family: Arial, sans-serif; font-size: 16px; font-weight: 400;" class="noteText" dy="1em"><tspan x="887">5. AUTO-STOP PHASE</tspan></text></g><g data-et="note" data-id="i23"><rect x="223" y="1334" fill="#EDF2AE" stroke="#666" width="408" height="39" class="note"/><text x="427" y="1339" text-anchor="middle" dominant-baseline="middle" alignment-baseline="middle" style="font-family: Arial, sans-serif; font-size: 16px; font-weight: 400;" class="noteText" dy="1em"><tspan x="427">CONFIG_NETWORK_PROV_AUTOSTOP_TIMEOUT</tspan></text></g><g data-et="note" data-id="i25"><rect x="50" y="1461" fill="#EDF2AE" stroke="#666" width="1673" height="39" class="note"/><text x="887" y="1466" text-anchor="middle" dominant-baseline="middle" alignment-baseline="middle" style="font-family: Arial, sans-serif; font-size: 16px; font-weight: 400;" class="noteText" dy="1em"><tspan x="887">6. CLEANUP PHASE</tspan></text></g><text x="250" y="129" text-anchor="middle" dominant-baseline="middle" alignment-baseline="middle" style="font-family: Arial, sans-serif; font-size: 16px; font-weight: 400;" class="messageText" dy="1em">network_prov_mgr_start_provisioning()</text><line x1="76" y1="162" x2="423" y2="162" class="messageLine0" data-et="message" data-id="i1" data-from="Application" data-to="network_prov_mgr" stroke-width="2" stroke="none" style="fill: none;" marker-end="url(#mermaid-diagram-desktop-arrowhead)"/><text x="428" y="177" text-anchor="middle" dominant-baseline="middle" alignment-baseline="middle" style="font-family: Arial, sans-serif; font-size: 16px; font-weight: 400;" class="messageText" dy="1em">Allocate prov_ctx, setup security</text><path d="M 428,210 C 488,200 488,240 428,230" class="messageLine0" data-et="message" data-id="i2" data-from="network_prov_mgr" data-to="network_prov_mgr" stroke-width="2" stroke="none" style="fill: none;" marker-end="url(#mermaid-diagram-desktop-arrowhead)"/><text x="686" y="255" text-anchor="middle" dominant-baseline="middle" alignment-baseline="middle" style="font-family: Arial, sans-serif; font-size: 16px; font-weight: 400;" class="messageText" dy="1em">protocomm_new()</text><line x1="428" y1="288" x2="943" y2="288" class="messageLine0" data-et="message" data-id="i3" data-from="network_prov_mgr" data-to="protocomm" stroke-width="2" stroke="none" style="fill: none;" marker-end="url(#mermaid-diagram-desktop-arrowhead)"/><text x="586" y="303" text-anchor="middle" dominant-baseline="middle" alignment-baseline="middle" style="font-family: Arial, sans-serif; font-size: 16px; font-weight: 400;" class="messageText" dy="1em">prov_start(pc, config)</text><line x1="428" y1="336" x2="743" y2="336" class="messageLine0" data-et="message" data-id="i4" data-from="network_prov_mgr" data-to="scheme_softap" stroke-width="2" stroke="none" style="fill: none;" marker-end="url(#mermaid-diagram-desktop-arrowhead)"/><text x="1121" y="400" text-anchor="middle" dominant-baseline="middle" alignment-baseline="middle" style="font-family: Arial, sans-serif; font-size: 16px; font-weight: 400;" class="messageText" dy="1em">protocomm_httpd_start(pc, config)</text><line x1="748" y1="433" x2="1494" y2="433" class="messageLine0" data-et="message" data-id="i6" data-from="scheme_softap" data-to="protocomm_httpd" stroke-width="2" stroke="none" style="fill: none;" marker-end="url(#mermaid-diagram-desktop-arrowhead)"/><text x="1324" y="448" text-anchor="middle" dominant-baseline="middle" alignment-baseline="middle" style="font-family: Arial, sans-serif; font-size: 16px; font-weight: 400;" class="messageText" dy="1em">start_wifi_ap(ssid, password)</text><line x1="1497" y1="481" x2="1151" y2="481" class="messageLine0" data-et="message" data-id="i7" data-from="protocomm_httpd" data-to="esp_wifi" stroke-width="2" stroke="none" style="fill: none;" marker-end="url(#mermaid-diagram-desktop-arrowhead)"/><text x="1148" y="496" text-anchor="middle" dominant-baseline="middle" alignment-baseline="middle" style="font-family: Arial, sans-serif; font-size: 16px; font-weight: 400;" class="messageText" dy="1em">esp_wifi_set_mode(WIFI_MODE_APSTA)</text><path d="M 1148,529 C 1208,519 1208,559 1148,549" class="messageLine0" data-et="message" data-id="i8" data-from="esp_wifi" data-to="esp_wifi" stroke-width="2" stroke="none" style="fill: none;" marker-end="url(#mermaid-diagram-desktop-arrowhead)"/><text x="1148" y="574" text-anchor="middle" dominant-baseline="middle" alignment-baseline="middle" style="font-family: Arial, sans-serif; font-size: 16px; font-weight: 400;" class="messageText" dy="1em">esp_wifi_set_config(WIFI_IF_AP)</text><path d="M 1148,607 C 1208,597 1208,637 1148,627" class="messageLine0" data-et="message" data-id="i9" data-from="esp_wifi" data-to="esp_wifi" stroke-width="2" stroke="none" style="fill: none;" marker-end="url(#mermaid-diagram-desktop-arrowhead)"/><text x="413" y="701" text-anchor="middle" dominant-baseline="middle" alignment-baseline="middle" style="font-family: Arial, sans-serif; font-size: 16px; font-weight: 400;" class="messageText" dy="1em">Send Wi-Fi credentials via HTTP</text><line x1="746" y1="734" x2="79" y2="734" class="messageLine0" data-et="message" data-id="i11" data-from="scheme_softap" data-to="Application" stroke-width="2" stroke="none" style="fill: none;" marker-end="url(#mermaid-diagram-desktop-arrowhead)"/><text x="785" y="749" text-anchor="middle" dominant-baseline="middle" alignment-baseline="middle" style="font-family: Arial, sans-serif; font-size: 16px; font-weight: 400;" class="messageText" dy="1em">Forward to prov-config endpoint</text><line x1="76" y1="782" x2="1494" y2="782" class="messageLine0" data-et="message" data-id="i12" data-from="Application" data-to="protocomm_httpd" stroke-width="2" stroke="none" style="fill: none;" marker-end="url(#mermaid-diagram-desktop-arrowhead)"/><text x="1124" y="797" text-anchor="middle" dominant-baseline="middle" alignment-baseline="middle" style="font-family: Arial, sans-serif; font-size: 16px; font-weight: 400;" class="messageText" dy="1em">network_prov_config_data_handler()</text><line x1="1497" y1="830" x2="751" y2="830" class="messageLine0" data-et="message" data-id="i13" data-from="protocomm_httpd" data-to="scheme_softap" stroke-width="2" stroke="none" style="fill: none;" marker-end="url(#mermaid-diagram-desktop-arrowhead)"/><text x="589" y="845" text-anchor="middle" dominant-baseline="middle" alignment-baseline="middle" style="font-family: Arial, sans-serif; font-size: 16px; font-weight: 400;" class="messageText" dy="1em">esp_wifi_set_config(WIFI_IF_STA)</text><line x1="746" y1="878" x2="431" y2="878" class="messageLine0" data-et="message" data-id="i14" data-from="scheme_softap" data-to="network_prov_mgr" stroke-width="2" stroke="none" style="fill: none;" marker-end="url(#mermaid-diagram-desktop-arrowhead)"/><text x="786" y="893" text-anchor="middle" dominant-baseline="middle" alignment-baseline="middle" style="font-family: Arial, sans-serif; font-size: 16px; font-weight: 400;" class="messageText" dy="1em">esp_wifi_connect()</text><line x1="428" y1="926" x2="1143" y2="926" class="messageLine0" data-et="message" data-id="i15" data-from="network_prov_mgr" data-to="esp_wifi" stroke-width="2" stroke="none" style="fill: none;" marker-end="url(#mermaid-diagram-desktop-arrowhead)"/><text x="1421" y="990" text-anchor="middle" dominant-baseline="middle" alignment-baseline="middle" style="font-family: Arial, sans-serif; font-size: 16px; font-weight: 400;" class="messageText" dy="1em">WIFI_EVENT_STA_CONNECTED</text><line x1="1148" y1="1023" x2="1694" y2="1023" class="messageLine0" data-et="message" data-id="i17" data-from="esp_wifi" data-to="Event Handler" stroke-width="2" stroke="none" style="fill: none;" marker-end="url(#mermaid-diagram-desktop-arrowhead)"/><text x="1421" y="1038" text-anchor="middle" dominant-baseline="middle" alignment-baseline="middle" style="font-family: Arial, sans-serif; font-size: 16px; font-weight: 400;" class="messageText" dy="1em">IP_EVENT_STA_GOT_IP</text><line x1="1148" y1="1071" x2="1694" y2="1071" class="messageLine0" data-et="message" data-id="i18" data-from="esp_wifi" data-to="Event Handler" stroke-width="2" stroke="none" style="fill: none;" marker-end="url(#mermaid-diagram-desktop-arrowhead)"/><text x="1064" y="1086" text-anchor="middle" dominant-baseline="middle" alignment-baseline="middle" style="font-family: Arial, sans-serif; font-size: 16px; font-weight: 400;" class="messageText" dy="1em">network_prov_mgr_event_handler_internal()</text><line x1="1697" y1="1119" x2="431" y2="1119" class="messageLine0" data-et="message" data-id="i19" data-from="Event Handler" data-to="network_prov_mgr" stroke-width="2" stroke="none" style="fill: none;" marker-end="url(#mermaid-diagram-desktop-arrowhead)"/><text x="428" y="1134" text-anchor="middle" dominant-baseline="middle" alignment-baseline="middle" style="font-family: Arial, sans-serif; font-size: 16px; font-weight: 400;" class="messageText" dy="1em">Set state to NETWORK_PROV_STATE_SUCCESS</text><path d="M 428,1167 C 488,1157 488,1197 428,1187" class="messageLine0" data-et="message" data-id="i20" data-from="network_prov_mgr" data-to="network_prov_mgr" stroke-width="2" stroke="none" style="fill: none;" marker-end="url(#mermaid-diagram-desktop-arrowhead)"/><text x="428" y="1261" text-anchor="middle" dominant-baseline="middle" alignment-baseline="middle" style="font-family: Arial, sans-serif; font-size: 16px; font-weight: 400;" class="messageText" dy="1em">Start autostop timer (if enabled)</text><path d="M 428,1294 C 488,1284 488,1324 428,1314" class="messageLine0" data-et="message" data-id="i22" data-from="network_prov_mgr" data-to="network_prov_mgr" stroke-width="2" stroke="none" style="fill: none;" marker-end="url(#mermaid-diagram-desktop-arrowhead)"/><text x="428" y="1388" text-anchor="middle" dominant-baseline="middle" alignment-baseline="middle" style="font-family: Arial, sans-serif; font-size: 16px; font-weight: 400;" class="messageText" dy="1em">stop_prov_timer_cb() after timeout</text><path d="M 428,1421 C 488,1411 488,1451 428,1441" class="messageLine0" data-et="message" data-id="i24" data-from="network_prov_mgr" data-to="network_prov_mgr" stroke-width="2" stroke="none" style="fill: none;" marker-end="url(#mermaid-diagram-desktop-arrowhead)"/><text x="428" y="1515" text-anchor="middle" dominant-baseline="middle" alignment-baseline="middle" style="font-family: Arial, sans-serif; font-size: 16px; font-weight: 400;" class="messageText" dy="1em">network_prov_mgr_stop_service()</text><path d="M 428,1548 C 488,1538 488,1578 428,1568" class="messageLine0" data-et="message" data-id="i26" data-from="network_prov_mgr" data-to="network_prov_mgr" stroke-width="2" stroke="none" style="fill: none;" marker-end="url(#mermaid-diagram-desktop-arrowhead)"/><text x="686" y="1593" text-anchor="middle" dominant-baseline="middle" alignment-baseline="middle" style="font-family: Arial, sans-serif; font-size: 16px; font-weight: 400;" class="messageText" dy="1em">protocomm_remove_endpoint() for all endpoints</text><line x1="428" y1="1626" x2="943" y2="1626" class="messageLine0" data-et="message" data-id="i27" data-from="network_prov_mgr" data-to="protocomm" stroke-width="2" stroke="none" style="fill: none;" marker-end="url(#mermaid-diagram-desktop-arrowhead)"/><text x="686" y="1641" text-anchor="middle" dominant-baseline="middle" alignment-baseline="middle" style="font-family: Arial, sans-serif; font-size: 16px; font-weight: 400;" class="messageText" dy="1em">protocomm_unset_security()</text><line x1="428" y1="1674" x2="943" y2="1674" class="messageLine0" data-et="message" data-id="i28" data-from="network_prov_mgr" data-to="protocomm" stroke-width="2" stroke="none" style="fill: none;" marker-end="url(#mermaid-diagram-desktop-arrowhead)"/><text x="586" y="1689" text-anchor="middle" dominant-baseline="middle" alignment-baseline="middle" style="font-family: Arial, sans-serif; font-size: 16px; font-weight: 400;" class="messageText" dy="1em">prov_stop(pc)</text><line x1="428" y1="1722" x2="743" y2="1722" class="messageLine0" data-et="message" data-id="i29" data-from="network_prov_mgr" data-to="scheme_softap" stroke-width="2" stroke="none" style="fill: none;" marker-end="url(#mermaid-diagram-desktop-arrowhead)"/><text x="1121" y="1737" text-anchor="middle" dominant-baseline="middle" alignment-baseline="middle" style="font-family: Arial, sans-serif; font-size: 16px; font-weight: 400;" class="messageText" dy="1em">protocomm_httpd_stop(pc)</text><line x1="748" y1="1770" x2="1494" y2="1770" class="messageLine0" data-et="message" data-id="i30" data-from="scheme_softap" data-to="protocomm_httpd" stroke-width="2" stroke="none" style="fill: none;" marker-end="url(#mermaid-diagram-desktop-arrowhead)"/><text x="1324" y="1785" text-anchor="middle" dominant-baseline="middle" alignment-baseline="middle" style="font-family: Arial, sans-serif; font-size: 16px; font-weight: 400;" class="messageText" dy="1em">esp_wifi_set_mode(WIFI_MODE_STA)</text><line x1="1497" y1="1818" x2="1151" y2="1818" class="messageLine0" data-et="message" data-id="i31" data-from="protocomm_httpd" data-to="esp_wifi" stroke-width="2" stroke="none" style="fill: none;" marker-end="url(#mermaid-diagram-desktop-arrowhead)"/><text x="686" y="1833" text-anchor="middle" dominant-baseline="middle" alignment-baseline="middle" style="font-family: Arial, sans-serif; font-size: 16px; font-weight: 400;" class="messageText" dy="1em">protocomm_delete(pc)</text><line x1="428" y1="1866" x2="943" y2="1866" class="messageLine0" data-et="message" data-id="i32" data-from="network_prov_mgr" data-to="protocomm" stroke-width="2" stroke="none" style="fill: none;" marker-end="url(#mermaid-diagram-desktop-arrowhead)"/><text x="428" y="1881" text-anchor="middle" dominant-baseline="middle" alignment-baseline="middle" style="font-family: Arial, sans-serif; font-size: 16px; font-weight: 400;" class="messageText" dy="1em">Free all handlers and timers</text><path d="M 428,1914 C 488,1904 488,1944 428,1934" class="messageLine0" data-et="message" data-id="i33" data-from="network_prov_mgr" data-to="network_prov_mgr" stroke-width="2" stroke="none" style="fill: none;" marker-end="url(#mermaid-diagram-desktop-arrowhead)"/></svg>
